<svg width="200" height="96" viewBox="0 0 200 96" fill="none" xmlns="http://www.w3.org/2000/svg" xmlns:xlink="http://www.w3.org/1999/xlink">
<rect width="200" height="96" rx="8" fill="#328647"/>
<path d="M0 8C0 3.58172 3.58172 0 8 0H12V96H8C3.58172 96 0 92.4183 0 88V8Z" fill="#3C3C43" fill-opacity="0.6"/>
<rect x="4" y="43" width="6" height="10" fill="url(#pattern0_5_7)"/>
<path d="M200 88C200 92.4183 196.418 96 192 96L188 96L188 -2.09815e-06L192 -1.39876e-06C196.418 -6.26248e-07 200 3.58172 200 8L200 88Z" fill="#3C3C43" fill-opacity="0.6"/>
<rect x="196" y="53" width="6" height="10" transform="rotate(-180 196 53)" fill="url(#pattern1_5_7)"/>
<rect x="0.5" y="0.5" width="199" height="95" rx="7.5" stroke="#34C759"/>
<defs>
<pattern id="pattern0_5_7" patternUnits="userSpaceOnUse" patternTransform="matrix(3.24 0 0 3.24 4 47.1)" preserveAspectRatio="none" viewBox="0 0 7.2 7.2" width="1" height="1">
<g id="pattern0_5_7_inner">
<circle cx="2" cy="2" r="2" fill="#F0F0F0"/>
</g>
</pattern><pattern id="pattern1_5_7" patternUnits="userSpaceOnUse" patternTransform="matrix(3.24 0 0 3.24 196 57.1)" preserveAspectRatio="none" viewBox="0 0 7.2 7.2" width="1" height="1">
<g id="pattern1_5_7_inner">
<circle cx="2" cy="2" r="2" fill="#F0F0F0"/>
</g>
</pattern></defs>
</svg>
