<svg preserveAspectRatio="xMidYMid meet" width="100%" height="100%" overflow="visible" style="display: block;" viewBox="0 0 10 11.002" fill="none" xmlns="http://www.w3.org/2000/svg">
<path id="Union" d="M5 0C5.79561 0 6.55849 0.316237 7.12109 0.878906C7.6837 1.44163 8 2.20516 8 3.00098V4.50098H8.5C9.3283 4.50098 9.99979 5.17255 10 6.00098V9.50195C10 10.3306 9.32843 11.002 8.5 11.002H1.5C0.671573 11.002 0 10.3306 0 9.50195V6.00098C0.000209171 5.17255 0.671702 4.50098 1.5 4.50098H2V3.00098C2 2.20516 2.3163 1.44163 2.87891 0.878906C3.44151 0.316237 4.20439 0 5 0ZM1.5 5.50098C1.22399 5.50098 1.00021 5.72495 1 6.00098V9.50195C1 9.77815 1.22386 10.002 1.5 10.002H8.5C8.77614 10.002 9 9.77815 9 9.50195V6.00098C8.99979 5.72495 8.77601 5.50098 8.5 5.50098H1.5ZM5 1C4.46965 1 3.96099 1.21089 3.58594 1.58594C3.21086 1.96109 3 2.47043 3 3.00098V4.50098H7V3.00098C7 2.47043 6.78913 1.96109 6.41406 1.58594C6.03901 1.21089 5.53035 1 5 1Z" fill="var(--fill-0, #FF3B30)"/>
</svg>
