<svg preserveAspectRatio="xMidYMid meet" width="100%" height="100%" overflow="visible" style="display: block;" viewBox="0 0 12.0001 12" fill="none" xmlns="http://www.w3.org/2000/svg">
<path id="Union" d="M0.710054 0.0361736C0.870767 -0.00901295 1.04094 -0.0117774 1.20322 0.0273845L1.21201 0.0283611L8.42978 1.92582L8.43466 1.9268L8.43857 1.92778H8.43759C8.61534 1.97215 8.77732 2.0652 8.90439 2.19731C9.03314 2.33123 9.12079 2.49954 9.15732 2.68168L9.82041 5.99906C9.91613 5.96825 10.0168 5.95222 10.1192 5.95219C10.3777 5.95221 10.6259 6.05462 10.8087 6.23735L11.7149 7.14457C11.8976 7.3274 12.0001 7.57556 12.0001 7.83403C11.9999 8.09224 11.8975 8.33986 11.7149 8.5225L8.52255 11.7149C8.33992 11.8974 8.09228 11.9998 7.83408 12C7.57555 12 7.32648 11.8977 7.14365 11.7149L6.2374 10.8086C6.05467 10.6258 5.95226 10.3777 5.95224 10.1192C5.95227 10.0168 5.9683 9.91608 5.99912 9.82035L2.68173 9.15727C2.49958 9.12074 2.33129 9.0331 2.19736 8.90434C2.06354 8.77562 1.96953 8.61117 1.92587 8.4307V8.42973L0.0284129 1.21195L0.0274364 1.20414C-0.011824 1.04174 -0.00899726 0.870844 0.0362254 0.710002C0.0815046 0.54944 0.167281 0.403164 0.285249 0.285197C0.403229 0.167228 0.549478 0.0814435 0.710054 0.0361736ZM10.1192 6.75883C10.0748 6.75891 10.0315 6.77631 10.0001 6.80766L9.83896 6.96781C9.83626 6.97066 9.83393 6.97384 9.83115 6.9766L6.97763 9.82914C6.97439 9.83244 6.97121 9.83573 6.96787 9.83891L6.80771 10C6.77637 10.0315 6.75897 10.0748 6.75888 10.1192C6.7589 10.1637 6.7763 10.2068 6.80771 10.2383L7.71494 11.1446L7.73935 11.1661C7.76676 11.1843 7.80065 11.1934 7.83408 11.1934C7.87828 11.1932 7.92093 11.1758 7.95224 11.1446L11.1446 7.95219L11.1661 7.9268C11.1842 7.89962 11.1933 7.86714 11.1935 7.83403C11.1935 7.80076 11.1842 7.76761 11.1661 7.74028L11.1446 7.71488L10.2384 6.80766C10.2069 6.77624 10.1637 6.75885 10.1192 6.75883ZM4.77744 4.20707C5.00423 4.07649 5.26655 4.00011 5.54697 4.00004C6.40084 4.00018 7.09265 4.69305 7.09287 5.54692C7.09272 6.40084 6.40089 7.09365 5.54697 7.09379C4.69309 7.09359 4.00023 6.4008 4.00009 5.54692C4.00016 5.26649 4.07653 5.00418 4.20712 4.77738L0.941499 1.51176L2.7081 8.23344L2.71005 8.24125C2.71761 8.2723 2.73389 8.30114 2.75693 8.32328C2.77987 8.34522 2.80882 8.35994 2.83994 8.36625L6.55673 9.10942L9.10947 6.55668L8.3663 2.83988C8.35999 2.80879 8.34526 2.77981 8.32333 2.75688C8.3012 2.73385 8.27233 2.71756 8.2413 2.71L8.23349 2.70805L1.51181 0.941447L4.77744 4.20707ZM5.54697 4.80766C5.13877 4.80786 4.80792 5.13872 4.80771 5.54692C4.80785 5.95517 5.13873 6.28598 5.54697 6.28617C5.95526 6.28603 6.28608 5.9552 6.28623 5.54692C6.28601 5.13869 5.95521 4.8078 5.54697 4.80766Z" fill="var(--fill-0, white)"/>
</svg>
