<svg preserveAspectRatio="xMidYMid meet" width="100%" height="100%" overflow="visible" style="display: block;" viewBox="0 0 13 13" fill="none" xmlns="http://www.w3.org/2000/svg">
<path id="Union" d="M0.750893 0.000567617C0.864193 -0.00385026 0.976935 0.0176151 1.08233 0.0616643L1.08317 0.0599904L12.5103 4.7025H12.5111C12.6258 4.74921 12.7269 4.82251 12.8074 4.91508L12.8811 5.01384L12.938 5.12264C12.986 5.23556 13.0064 5.35896 12.9982 5.48253C12.9873 5.64708 12.9251 5.80406 12.82 5.93113C12.7148 6.05816 12.572 6.14906 12.4124 6.19058H12.4115L8.03753 7.31961C7.86454 7.36408 7.70614 7.45374 7.57971 7.5799C7.45328 7.70606 7.3634 7.86399 7.31857 8.03687L6.19034 12.4116V12.4124C6.14882 12.572 6.05792 12.7148 5.93088 12.82C5.80381 12.9251 5.64683 12.9873 5.48227 12.9983C5.31762 13.0092 5.1535 12.9685 5.01356 12.8811C4.8736 12.7936 4.76449 12.664 4.70221 12.5112V12.5103L0.0595579 1.08357L0.0612319 1.08273C0.00215842 0.941395 -0.0151118 0.786438 0.0135248 0.635805L0.0436556 0.522818C0.0823205 0.412677 0.145385 0.31229 0.228625 0.229052C0.339523 0.118158 0.481328 0.0433087 0.635391 0.0139587L0.750893 0.000567617ZM5.41447 11.9872L6.4883 7.82261V7.82177C6.57156 7.50069 6.73978 7.20742 6.97458 6.97312C7.20922 6.73904 7.50228 6.57198 7.82326 6.48937L11.9872 5.41473L0.916612 0.917017L5.41447 11.9872Z" fill="var(--fill-0, white)"/>
</svg>
