<svg preserveAspectRatio="xMidYMid meet" width="100%" height="100%" overflow="visible" style="display: block;" viewBox="0 0 13.0003 13.2559" fill="none" xmlns="http://www.w3.org/2000/svg">
<path id="Union" d="M5.68193 0C6.19722 0 6.70111 0.159855 7.12138 0.458008C7.48875 0.718769 7.77687 1.07419 7.95732 1.48438L8.02861 1.66406L8.03252 1.67578L8.18291 2.15332C8.25152 2.37135 8.13037 2.60398 7.9124 2.67285C7.69433 2.74151 7.46173 2.62036 7.39287 2.40234L7.24638 1.9375C7.13287 1.6134 6.92098 1.33251 6.64092 1.13379C6.36079 0.935148 6.02534 0.828125 5.68193 0.828125C5.33871 0.828234 5.0039 0.935255 4.72392 1.13379C4.44388 1.33251 4.23196 1.61341 4.11846 1.9375L0.842088 12.0674C0.82917 12.1084 0.825461 12.1528 0.832322 12.1953C0.839298 12.2379 0.856706 12.2786 0.882127 12.3135C0.90769 12.3484 0.941211 12.3778 0.979783 12.3975C1.01839 12.417 1.0615 12.4267 1.10478 12.4268H10.2542C10.2976 12.4268 10.3414 12.4171 10.3802 12.3975C10.4189 12.3777 10.4532 12.3486 10.4788 12.3135C10.5043 12.2784 10.5208 12.2372 10.5276 12.1943C10.5344 12.1514 10.5313 12.1068 10.5179 12.0654L10.5169 12.0635L9.74053 9.6543C9.67053 9.43672 9.79067 9.20311 10.0081 9.13281C10.2258 9.06291 10.4595 9.18274 10.5296 9.40039L11.305 11.8086C11.3589 11.9741 11.373 12.1503 11.346 12.3223C11.3188 12.4945 11.2511 12.6587 11.1487 12.7998C11.0463 12.9408 10.9114 13.0556 10.7562 13.1348C10.6008 13.2139 10.4285 13.2559 10.2542 13.2559H1.10478C0.930884 13.2558 0.758814 13.2136 0.603807 13.1348C0.449053 13.056 0.314563 12.9421 0.212205 12.8018C0.109863 12.6614 0.0417226 12.4986 0.0139629 12.3271C-0.0137271 12.1555 7.62431e-06 11.979 0.0530254 11.8135L0.0540019 11.8125L3.3333 1.67383L3.33623 1.66406H3.33721C3.50743 1.17788 3.82435 0.756131 4.24443 0.458008C4.66448 0.160143 5.16699 0.000109191 5.68193 0ZM11.2054 2.76074C12.1966 2.76089 13.0003 3.56534 13.0003 4.55664C13.0001 5.54774 12.1965 6.35044 11.2054 6.35059C10.86 6.35053 10.5387 6.25109 10.2649 6.08203L5.9749 10.373C5.81317 10.5343 5.55061 10.5345 5.38896 10.373C5.22723 10.2113 5.22731 9.94792 5.38896 9.78613L9.67803 5.49609C9.50933 5.22266 9.41053 4.90151 9.41045 4.55664C9.41045 3.56535 10.2141 2.7609 11.2054 2.76074ZM5.68193 4.21094C5.91062 4.21094 6.09584 4.39635 6.09599 4.625V6.21387C6.09564 6.44235 5.9105 6.62793 5.68193 6.62793C5.45345 6.62784 5.26822 6.44229 5.26787 6.21387V4.625C5.26802 4.39641 5.45332 4.21103 5.68193 4.21094ZM11.2054 3.58984C10.6717 3.59 10.2386 4.02291 10.2386 4.55664C10.2387 4.8118 10.3386 5.04319 10.5003 5.21582C10.5085 5.22283 10.5179 5.22858 10.5257 5.23633C10.5328 5.24342 10.5378 5.2523 10.5442 5.25977C10.7172 5.42224 10.9494 5.52239 11.2054 5.52246C11.7389 5.52232 12.1719 5.09018 12.1722 4.55664C12.1722 4.02291 11.7391 3.58999 11.2054 3.58984Z" fill="var(--fill-0, #3D3D3D)"/>
</svg>
