<svg preserveAspectRatio="xMidYMid meet" width="100%" height="100%" overflow="visible" style="display: block;" viewBox="0 0 15 15" fill="none" xmlns="http://www.w3.org/2000/svg">
<g id="Frame">
<path id="Union" d="M7.5 0.760742C7.98821 0.760742 8.45907 0.943081 8.82031 1.27148C9.1365 1.55905 9.34964 1.94072 9.42871 2.35742L9.4541 2.53711V2.54102C9.46774 2.6949 9.5185 2.84337 9.60156 2.97363C9.68466 3.1039 9.79783 3.21277 9.93164 3.29004C10.0656 3.36731 10.2166 3.41121 10.3711 3.41797C10.4869 3.42303 10.6023 3.40687 10.7119 3.37109L10.8242 3.32617C11.2678 3.12486 11.7705 3.09638 12.2344 3.24512C12.6984 3.39394 13.0912 3.7099 13.335 4.13184C13.5786 4.55364 13.6564 5.05121 13.5537 5.52734C13.4509 6.00367 13.1744 6.42519 12.7783 6.70898L12.7744 6.71191C12.6479 6.80068 12.544 6.91856 12.4727 7.05566C12.4015 7.19271 12.3643 7.34557 12.3643 7.5C12.3643 7.65426 12.4016 7.80646 12.4727 7.94336C12.5261 8.04621 12.5978 8.13876 12.6836 8.21582L12.7744 8.28711L12.7783 8.29004C13.1744 8.57381 13.4508 8.99538 13.5537 9.47168C13.6565 9.94782 13.5785 10.4454 13.335 10.8672C13.0912 11.2892 12.6984 11.606 12.2344 11.7549C11.7705 11.9036 11.2678 11.8742 10.8242 11.6729L10.7119 11.6279C10.6024 11.5922 10.4868 11.576 10.3711 11.5811C10.2166 11.5878 10.0656 11.6317 9.93164 11.709C9.79781 11.7862 9.68468 11.8951 9.60156 12.0254C9.51848 12.1556 9.46777 12.3041 9.4541 12.458V12.4619C9.40781 12.9479 9.18147 13.3991 8.82031 13.7275C8.45906 14.056 7.98825 14.2383 7.5 14.2383C7.0118 14.2382 6.54086 14.056 6.17968 13.7275C5.81869 13.3991 5.59315 12.9478 5.54687 12.4619L5.54589 12.458C5.53227 12.3042 5.48241 12.1556 5.39941 12.0254C5.31623 11.895 5.20231 11.7862 5.06836 11.709C4.93442 11.6318 4.78335 11.5878 4.6289 11.5811C4.51312 11.5761 4.39763 11.5921 4.28808 11.6279L4.17578 11.6729C3.7322 11.8741 3.22948 11.9036 2.76562 11.7549C2.3016 11.606 1.9098 11.2891 1.66601 10.8672C1.42231 10.4453 1.34352 9.94793 1.44629 9.47168C1.54915 8.99541 1.82559 8.57381 2.22168 8.29004L2.22558 8.28711C2.3521 8.19833 2.45604 8.08049 2.52734 7.94336C2.59847 7.80644 2.63566 7.65429 2.63574 7.5C2.63572 7.34554 2.59856 7.19272 2.52734 7.05566C2.45604 6.91857 2.35208 6.80067 2.22558 6.71191L2.22168 6.70898C1.82608 6.42505 1.54987 6.00336 1.44726 5.52734C1.34483 5.05154 1.42267 4.55432 1.66601 4.13281C1.90955 3.71114 2.30205 3.39515 2.76562 3.24609C3.22907 3.09717 3.73128 3.12555 4.1748 3.32617L4.28711 3.37109C4.39681 3.40697 4.51297 3.42303 4.6289 3.41797C4.78315 3.41115 4.93363 3.36718 5.06738 3.29004C5.20124 3.2128 5.31431 3.10391 5.39746 2.97363C5.48055 2.84336 5.53127 2.69493 5.54492 2.54102C5.54572 2.53218 5.54857 2.52333 5.5498 2.51465C5.60086 2.03741 5.82426 1.59482 6.17968 1.27148C6.54085 0.943039 7.01182 0.760843 7.5 0.760742ZM7.5 1.76074C7.26069 1.76084 7.02961 1.84976 6.85254 2.01074C6.67545 2.17179 6.56474 2.39357 6.54199 2.63184C6.54124 2.63967 6.53822 2.64756 6.53711 2.65527C6.506 2.95979 6.40596 3.25344 6.24121 3.51172C6.07166 3.77749 5.84043 3.9987 5.56738 4.15625C5.2943 4.31381 4.98684 4.40322 4.67187 4.41699C4.35883 4.43064 4.04705 4.3688 3.76269 4.2373L3.67968 4.2041C3.48371 4.13654 3.27014 4.13431 3.07129 4.19824C2.84399 4.27136 2.65164 4.42606 2.53222 4.63281C2.41283 4.83959 2.37452 5.08397 2.4248 5.31738C2.47475 5.54871 2.60853 5.75344 2.7998 5.89258C3.05761 6.07348 3.26868 6.31437 3.41406 6.59375C3.55943 6.87334 3.63572 7.18487 3.63574 7.5C3.63566 7.81498 3.55935 8.1258 3.41406 8.40527C3.26941 8.6833 3.05978 8.92193 2.80371 9.10254C2.60949 9.2417 2.47428 9.44908 2.42382 9.68262C2.37343 9.91615 2.41178 10.1603 2.53125 10.3672C2.6508 10.5741 2.84371 10.7288 3.07129 10.8018C3.29882 10.8747 3.54513 10.8605 3.76269 10.7617C4.04723 10.6299 4.35952 10.5684 4.67285 10.582C4.98787 10.5957 5.29521 10.6852 5.56836 10.8428C5.84144 11.0003 6.07261 11.2215 6.24218 11.4873C6.41175 11.7531 6.51521 12.056 6.54297 12.3701H6.54199C6.56532 12.6073 6.67617 12.8279 6.85254 12.9883C7.02961 13.1493 7.26066 13.2382 7.5 13.2383C7.7395 13.2383 7.97125 13.1494 8.14843 12.9883C8.32475 12.8279 8.43466 12.6073 8.458 12.3701C8.4858 12.0561 8.58926 11.7531 8.75879 11.4873C8.92832 11.2217 9.15966 11.0003 9.43261 10.8428C9.70551 10.6854 10.0124 10.5958 10.3271 10.582C10.6404 10.5683 10.9528 10.6301 11.2373 10.7617C11.4549 10.8605 11.7021 10.8748 11.9297 10.8018C12.157 10.7287 12.3493 10.574 12.4687 10.3672C12.5883 10.1603 12.6266 9.91619 12.5762 9.68262C12.5257 9.44904 12.3896 9.24268 12.1953 9.10352V9.10254C11.9396 8.92198 11.7304 8.68304 11.5859 8.40527C11.4406 8.12581 11.3643 7.81497 11.3643 7.5C11.3643 7.18487 11.4406 6.87334 11.5859 6.59375C11.7305 6.31583 11.9394 6.07609 12.1953 5.89551C12.3896 5.75632 12.5257 5.55002 12.5762 5.31641C12.6265 5.08285 12.5883 4.83872 12.4687 4.63184C12.3493 4.4251 12.157 4.27031 11.9297 4.19727C11.7021 4.12429 11.4549 4.13851 11.2373 4.2373C10.9528 4.36896 10.6404 4.43069 10.3271 4.41699C10.0124 4.40319 9.70552 4.31363 9.43261 4.15625C9.15965 3.99874 8.92831 3.77738 8.75879 3.51172C8.58927 3.24595 8.48578 2.94291 8.458 2.62891V2.62793C8.43441 2.39118 8.32451 2.1709 8.14843 2.01074C7.97126 1.84964 7.73947 1.76074 7.5 1.76074ZM7.5 5.125C8.81167 5.125 9.875 6.18832 9.875 7.5C9.875 8.81168 8.81167 9.875 7.5 9.875C6.18835 9.87496 5.125 8.81165 5.125 7.5C5.125 6.18835 6.18835 5.12504 7.5 5.125ZM7.5 6.125C6.74064 6.12504 6.125 6.74063 6.125 7.5C6.125 8.25937 6.74064 8.87496 7.5 8.875C8.25939 8.875 8.875 8.25939 8.875 7.5C8.875 6.74061 8.25939 6.125 7.5 6.125Z" fill="var(--fill-0, #3D3D3D)"/>
</g>
</svg>
