<svg width="28" height="28" viewBox="0 0 28 28" fill="none" xmlns="http://www.w3.org/2000/svg">
<g id="Frame 109" filter="url(#filter0_d_380_1302)">
<rect x="2" width="24" height="24" rx="12" fill="var(--fill-0, #1F1F1F)" shape-rendering="crispEdges"/>
<rect x="2.25" y="0.25" width="23.5" height="23.5" rx="11.75" stroke="var(--stroke-0, #3D3D3D)" stroke-width="0.5" shape-rendering="crispEdges"/>
<path id="?" d="M13.9287 15.0452C13.7576 15.0452 13.6188 14.9064 13.6188 14.7353C13.6229 14.1308 13.6948 13.6392 13.8345 13.2604C13.9742 12.8816 14.1796 12.5622 14.4507 12.302C14.7259 12.038 15.0669 11.7855 15.4736 11.5445C15.7776 11.3608 16.0323 11.1676 16.2377 10.9648C16.4472 10.7582 16.6053 10.5325 16.7121 10.2877C16.8231 10.039 16.8785 9.76925 16.8785 9.47848C16.8785 9.06528 16.7738 8.70373 16.5643 8.39383C16.3589 8.08393 16.0795 7.84481 15.7262 7.67647C15.3729 7.5043 14.9806 7.41822 14.5493 7.41822C14.1385 7.41822 13.7544 7.50239 13.397 7.67073C13.0437 7.83525 12.7541 8.08011 12.5282 8.40531C12.3989 8.59262 12.3038 8.80591 12.2429 9.04521C12.1656 9.34878 11.9176 9.599 11.6044 9.599C11.2738 9.599 11.0024 9.32305 11.0691 8.99929C11.1484 8.61445 11.2938 8.26724 11.5053 7.95768C11.8216 7.49474 12.2447 7.13702 12.7746 6.88451C13.3046 6.62817 13.8961 6.5 14.5493 6.5C15.2312 6.5 15.831 6.63199 16.3486 6.89598C16.8662 7.15615 17.2708 7.51387 17.5625 7.96915C17.8542 8.42061 18 8.93902 18 9.52439C18 9.91081 17.9343 10.2628 17.8028 10.5803C17.6714 10.8979 17.4742 11.1906 17.2113 11.4584C16.9525 11.7262 16.6279 11.9787 16.2377 12.2159C15.868 12.4455 15.5742 12.6731 15.3565 12.8989C15.1388 13.1246 14.9827 13.3828 14.8882 13.6736C14.7937 13.9605 14.7424 14.3144 14.7342 14.7353C14.7342 14.9064 14.5954 15.0452 14.4243 15.0452H13.9287ZM14.2104 18.5C13.968 18.5 13.7585 18.4197 13.5819 18.259C13.4093 18.0945 13.3231 17.8993 13.3231 17.6736C13.3231 17.444 13.4093 17.2489 13.5819 17.0882C13.7585 16.9275 13.968 16.8472 14.2104 16.8472C14.4528 16.8472 14.6602 16.9275 14.8327 17.0882C15.0094 17.2489 15.0977 17.444 15.0977 17.6736C15.0977 17.8228 15.0566 17.9605 14.9745 18.0868C14.8964 18.2131 14.7896 18.3144 14.654 18.391C14.5226 18.4637 14.3747 18.5 14.2104 18.5Z" fill="var(--fill-0, #CCCCCC)"/>
</g>
<defs>
<filter id="filter0_d_380_1302" x="0" y="0" width="28" height="28" filterUnits="userSpaceOnUse" color-interpolation-filters="sRGB">
<feFlood flood-opacity="0" result="BackgroundImageFix"/>
<feColorMatrix in="SourceAlpha" type="matrix" values="0 0 0 0 0 0 0 0 0 0 0 0 0 0 0 0 0 0 127 0" result="hardAlpha"/>
<feOffset dy="2"/>
<feGaussianBlur stdDeviation="1"/>
<feComposite in2="hardAlpha" operator="out"/>
<feColorMatrix type="matrix" values="0 0 0 0 0 0 0 0 0 0 0 0 0 0 0 0 0 0 0.49 0"/>
<feBlend mode="normal" in2="BackgroundImageFix" result="effect1_dropShadow_380_1302"/>
<feBlend mode="normal" in="SourceGraphic" in2="effect1_dropShadow_380_1302" result="shape"/>
</filter>
</defs>
</svg>
