<svg preserveAspectRatio="xMidYMid meet" width="100%" height="100%" overflow="visible" style="display: block;" viewBox="0 0 22 11" fill="none" xmlns="http://www.w3.org/2000/svg">
<g id="Group 29">
<path id="Union" d="M14.5 8C15.3284 8 16 8.67157 16 9.5C16 10.3284 15.3284 11 14.5 11H5.5C4.67157 11 4 10.3284 4 9.5C4 8.67157 4.67157 8 5.5 8H14.5ZM20.4492 0.166992C21.1141 -0.271389 22 0.205561 22 1.00195V9.28711C21.9998 10.0833 21.114 10.5603 20.4492 10.1221L15.4492 6.8252C15.1689 6.64016 15.0001 6.32616 15 5.99023V4.29883C15 4.00482 15.1294 3.72765 15.3496 3.53906L15.4492 3.46387L20.4492 0.166992ZM5.5 9C5.22386 9 5 9.22386 5 9.5C5 9.77614 5.22386 10 5.5 10H14.5C14.7761 10 15 9.77614 15 9.5C15 9.22386 14.7761 9 14.5 9H5.5ZM16 4.29883V5.99023L21 9.28711V1.00195L16 4.29883ZM12.5 4C13.3284 4 14 4.67157 14 5.5C14 6.32843 13.3284 7 12.5 7H1.5C0.671573 7 0 6.32843 0 5.5C0 4.67157 0.671573 4 1.5 4H12.5ZM1.5 5C1.22386 5 1 5.22386 1 5.5C1 5.77614 1.22386 6 1.5 6H12.5C12.7761 6 13 5.77614 13 5.5C13 5.22386 12.7761 5 12.5 5H1.5ZM13.5 0C14.3284 0 15 0.671573 15 1.5C15 2.32843 14.3284 3 13.5 3H8.5C7.67157 3 7 2.32843 7 1.5C7 0.671573 7.67157 0 8.5 0H13.5ZM8.5 1C8.22386 1 8 1.22386 8 1.5C8 1.77614 8.22386 2 8.5 2H13.5C13.7761 2 14 1.77614 14 1.5C14 1.22386 13.7761 1 13.5 1H8.5Z" fill="var(--fill-0, #3D3D3D)"/>
</g>
</svg>
