<svg preserveAspectRatio="xMidYMid meet" width="100%" height="100%" overflow="visible" style="display: block;" viewBox="0 0 14 11" fill="none" xmlns="http://www.w3.org/2000/svg">
<path id="Union" d="M13.5 10C13.7761 10 14 10.2239 14 10.5C14 10.7761 13.7761 11 13.5 11H0.5C0.223861 11 5.64633e-06 10.7761 0 10.5C2.32771e-08 10.2239 0.223858 10 0.5 10H13.5ZM12 0C13.1046 0 14 0.895431 14 2V7C14 8.10457 13.1046 9 12 9H2L1.7959 8.98926C0.787223 8.887 0 8.03565 0 7V2C0 0.895431 0.895431 0 2 0H12ZM2 1C1.44772 1 1 1.44772 1 2V4H2.5C2.77614 4 3 4.22386 3 4.5C3 4.77614 2.77614 5 2.5 5H1V7C1 7.55228 1.44772 8 2 8H12C12.5523 8 13 7.55228 13 7V5H11.5C11.2239 4.99999 11 4.77614 11 4.5C11 4.22387 11.2239 4.00001 11.5 4H13V2C13 1.44772 12.5523 1 12 1H2ZM7.5 3C7.77613 3 7.99999 3.22387 8 3.5V5.5C8 5.77614 7.77614 6 7.5 6C7.22386 6 7 5.77614 7 5.5V3.5C7.00001 3.22387 7.22387 3 7.5 3Z" fill="var(--fill-0, white)"/>
</svg>
