<svg preserveAspectRatio="xMidYMid meet" width="100%" height="100%" overflow="visible" style="display: block;" viewBox="0 0 13.335 13.3369" fill="none" xmlns="http://www.w3.org/2000/svg">
<path id="Union" d="M8.06348 2.19073e-08C8.75565 -4.4649e-05 9.44155 0.136543 10.0811 0.401367C10.7203 0.666187 11.3007 1.05471 11.79 1.54395C12.7786 2.53234 13.3348 3.8726 13.335 5.27051C13.335 6.66843 12.7794 8.00947 11.791 8.99805L7.78711 13.0029V13.0039C7.57427 13.2167 7.2853 13.3368 6.98438 13.3369C6.68342 13.3369 6.39457 13.2166 6.18164 13.0039V13.0029L4.73633 11.5586C4.52359 11.3457 4.40332 11.0569 4.40332 10.7559C4.40342 10.4549 4.52355 10.166 4.73633 9.95313L8.5293 6.16016C8.61811 6.07132 8.68922 5.96566 8.7373 5.84961C8.7853 5.73365 8.80953 5.60889 8.80957 5.4834C8.80953 5.35794 8.78527 5.23312 8.7373 5.11719C8.68923 5.00119 8.61807 4.89545 8.5293 4.80664C8.44046 4.71786 8.33478 4.6467 8.21875 4.59863C8.10273 4.55063 7.9781 4.52637 7.85254 4.52637C7.72702 4.52639 7.60231 4.55064 7.48633 4.59863C7.37033 4.64672 7.26458 4.71786 7.17578 4.80664L3.38281 8.59961C3.16986 8.81248 2.88021 8.93164 2.5791 8.93164C2.2782 8.93145 1.98916 8.81237 1.77637 8.59961L0.332031 7.15527C0.119236 6.9424 9.34786e-05 6.65353 0 6.35254C0 6.05158 0.119358 5.76273 0.332031 5.5498L1.99512 3.88477C1.99591 3.88396 1.99725 3.88361 1.99805 3.88281C1.99886 3.882 1.99918 3.88069 2 3.87988L4.33691 1.54395C5.32532 0.55558 6.66568 0.000127086 8.06348 2.19073e-08ZM5.27051 10.4873C5.19935 10.5586 5.15831 10.6551 5.1582 10.7559C5.1582 10.8568 5.19914 10.954 5.27051 11.0254H5.26953L6.71484 12.4697C6.78622 12.5411 6.88344 12.582 6.98438 12.582C7.08505 12.5819 7.18168 12.5409 7.25293 12.4697L8.65137 11.0693L6.66895 9.08789L5.27051 10.4873ZM8.06348 0.754883C6.86589 0.754992 5.71695 1.23035 4.87012 2.07715L2.79883 4.14941L4.78125 6.13184L6.6416 4.27246C6.80057 4.11351 6.99055 3.9874 7.19824 3.90137C7.40572 3.81553 7.62801 3.77151 7.85254 3.77148C8.07728 3.77148 8.30016 3.8154 8.50781 3.90137C8.71541 3.98737 8.90456 4.1136 9.06348 4.27246C9.22232 4.43135 9.34856 4.62057 9.43457 4.82813C9.5205 5.03568 9.56442 5.25875 9.56445 5.4834C9.56441 5.70808 9.52053 5.93109 9.43457 6.13867C9.34859 6.34615 9.22224 6.53451 9.06348 6.69336L7.20312 8.55371L9.18457 10.5361L11.2578 8.46387C12.1045 7.6169 12.5802 6.46809 12.5801 5.27051C12.5799 4.07282 12.1038 2.92397 11.2568 2.07715C10.8376 1.65797 10.3397 1.32552 9.79199 1.09863C9.24408 0.871747 8.65651 0.754838 8.06348 0.754883ZM0.866211 6.08301C0.794928 6.15438 0.754883 6.25166 0.754883 6.35254C0.754976 6.45331 0.794988 6.54981 0.866211 6.62109L2.31055 8.06543C2.38176 8.13663 2.47842 8.17657 2.5791 8.17676C2.67998 8.17676 2.77726 8.13671 2.84863 8.06543L4.24707 6.66602L2.26465 4.68359L0.866211 6.08301Z" fill="var(--fill-0, #3D3D3D)"/>
</svg>
