<svg preserveAspectRatio="xMidYMid meet" width="100%" height="100%" overflow="visible" style="display: block;" viewBox="0 0 10 11.0015" fill="none" xmlns="http://www.w3.org/2000/svg">
<path id="Union" d="M4.72363 0.0151684C5.46373 -0.0595087 6.20578 0.143322 6.80469 0.584504C7.40336 1.02574 7.81782 1.67402 7.96582 2.40286C8.02021 2.67298 7.84518 2.93655 7.5752 2.99173C7.30473 3.04665 7.04051 2.87147 6.98535 2.60111C6.88663 2.11547 6.6108 1.68326 6.21191 1.38919C5.81267 1.09509 5.31758 0.959555 4.82422 1.00931C4.33085 1.05918 3.87341 1.29074 3.54102 1.65872C3.20861 2.02678 3.02491 2.50556 3.02539 3.0015V4.5015H8.5C9.32838 4.5015 9.99992 5.17314 10 6.0015V9.5015C10 10.3299 9.32843 11.0015 8.5 11.0015H1.5C0.671573 11.0015 0 10.3299 0 9.5015V6.0015C8.01396e-05 5.17314 0.671622 4.5015 1.5 4.5015H2.02539V3.00247C2.02467 2.2586 2.30028 1.54088 2.79883 0.988801C3.29742 0.436757 3.98354 0.0900005 4.72363 0.0151684ZM1.5 5.5015C1.22391 5.5015 1.00008 5.72542 1 6.0015V9.5015C1 9.77764 1.22386 10.0015 1.5 10.0015H8.5C8.77614 10.0015 9 9.77764 9 9.5015V6.0015C8.99992 5.72542 8.77609 5.5015 8.5 5.5015H2.53418C2.53125 5.50155 2.52833 5.50247 2.52539 5.50247C2.52257 5.50247 2.51941 5.50154 2.5166 5.5015H1.5Z" fill="var(--fill-0, #7F7F7F)"/>
</svg>
