<svg preserveAspectRatio="xMidYMid meet" width="100%" height="100%" overflow="visible" style="display: block;" viewBox="0 0 10 12.5053" fill="none" xmlns="http://www.w3.org/2000/svg">
<path id="Vector 3 (Stroke)" d="M9 1.5C9 1.22386 8.77614 1 8.5 1H1.5C1.22386 1 1 1.22386 1 1.5V7.11621C1 7.23973 1.0453 7.35936 1.12793 7.45117L4.62793 11.3398C4.82655 11.5605 5.17345 11.5605 5.37207 11.3398L8.87207 7.45117C8.9547 7.35936 9 7.23973 9 7.11621V1.5ZM10 7.11621C10 7.48677 9.86313 7.84468 9.61523 8.12012L6.11523 12.0088C5.51937 12.6709 4.48063 12.6709 3.88477 12.0088L0.384766 8.12012C0.136872 7.84468 0 7.48677 0 7.11621V1.5C0 0.671573 0.671573 0 1.5 0H8.5C9.32843 0 10 0.671573 10 1.5V7.11621Z" fill="var(--fill-0, #3D3D3D)"/>
</svg>
