<svg width="200" height="96" viewBox="0 0 200 96" fill="none" xmlns="http://www.w3.org/2000/svg">
<rect width="200" height="96" rx="8" fill="#328647"/>
<path d="M0 8C0 3.58172 3.58172 0 8 0H12V96H8C3.58172 96 0 92.4183 0 88V8Z" fill="#385A44"/>
<circle cx="5" cy="45" r="1" fill="white"/>
<circle cx="5" cy="48" r="1" fill="white"/>
<circle cx="5" cy="51" r="1" fill="white"/>
<circle cx="8" cy="45" r="1" fill="white"/>
<circle cx="8" cy="48" r="1" fill="white"/>
<circle cx="8" cy="51" r="1" fill="white"/>
<path d="M200 88C200 92.4183 196.418 96 192 96L188 96L188 -1.04907e-06L192 -6.99382e-07C196.418 -3.13124e-07 200 3.58172 200 8L200 88Z" fill="#385A44"/>
<circle cx="195" cy="51" r="1" transform="rotate(-180 195 51)" fill="white"/>
<circle cx="195" cy="48" r="1" transform="rotate(-180 195 48)" fill="white"/>
<circle cx="195" cy="45" r="1" transform="rotate(-180 195 45)" fill="white"/>
<circle cx="192" cy="51" r="1" transform="rotate(-180 192 51)" fill="white"/>
<circle cx="192" cy="48" r="1" transform="rotate(-180 192 48)" fill="white"/>
<circle cx="192" cy="45" r="1" transform="rotate(-180 192 45)" fill="white"/>
<rect x="0.5" y="0.500061" width="199" height="95" rx="7.5" stroke="#34C759"/>
</svg>
