<svg width="200" height="48" viewBox="0 0 200 48" fill="none" xmlns="http://www.w3.org/2000/svg">
<rect y="0.00012207" width="200" height="48" rx="8" fill="#1C1C1C"/>
<path d="M0 8.00012C0 3.58185 3.58172 0.00012207 8 0.00012207H12V48.0001H8C3.58172 48.0001 0 44.4184 0 40.0001V8.00012Z" fill="#3C3C43" fill-opacity="0.6"/>
<circle cx="5" cy="21.0001" r="1" fill="white"/>
<circle cx="5" cy="24.0001" r="1" fill="white"/>
<circle cx="5" cy="27.0001" r="1" fill="white"/>
<circle cx="8" cy="21.0001" r="1" fill="white"/>
<circle cx="8" cy="24.0001" r="1" fill="white"/>
<circle cx="8" cy="27.0001" r="1" fill="white"/>
<path d="M200 40C200 44.4183 196.418 48 192 48L188 48L188 -1.04907e-06L192 -6.99382e-07C196.418 -3.13124e-07 200 3.58172 200 8L200 40Z" fill="#3C3C43" fill-opacity="0.6"/>
<circle cx="195" cy="27" r="1" transform="rotate(-180 195 27)" fill="white"/>
<circle cx="195" cy="24" r="1" transform="rotate(-180 195 24)" fill="white"/>
<circle cx="195" cy="21" r="1" transform="rotate(-180 195 21)" fill="white"/>
<circle cx="192" cy="27" r="1" transform="rotate(-180 192 27)" fill="white"/>
<circle cx="192" cy="24" r="1" transform="rotate(-180 192 24)" fill="white"/>
<circle cx="192" cy="21" r="1" transform="rotate(-180 192 21)" fill="white"/>
<rect x="0.5" y="0.500122" width="199" height="47" rx="7.5" stroke="#007AFF"/>
<path d="M33 36.0001L38.223 39.4821C38.2983 39.5322 38.3858 39.561 38.4761 39.5653C38.5664 39.5696 38.6563 39.5494 38.736 39.5067C38.8157 39.464 38.8824 39.4005 38.9289 39.3229C38.9754 39.2453 39 39.1566 39 39.0661V30.8701C39 30.7822 38.9768 30.6957 38.9328 30.6196C38.8887 30.5434 38.8253 30.4803 38.7491 30.4364C38.6728 30.3926 38.5863 30.3697 38.4983 30.37C38.4103 30.3703 38.324 30.3938 38.248 30.4381L33 33.5001" stroke="#242424" stroke-linecap="round" stroke-linejoin="round"/>
<path d="M31 29.0001H21C19.8954 29.0001 19 29.8956 19 31.0001V39.0001C19 40.1047 19.8954 41.0001 21 41.0001H31C32.1046 41.0001 33 40.1047 33 39.0001V31.0001C33 29.8956 32.1046 29.0001 31 29.0001Z" stroke="#242424" stroke-linecap="round" stroke-linejoin="round"/>
</svg>
