<svg preserveAspectRatio="xMidYMid meet" width="100%" height="100%" overflow="visible" style="display: block;" viewBox="0 0 17 10.585" fill="none" xmlns="http://www.w3.org/2000/svg">
<g id="Group 6">
<path id="Union" d="M10.1035 0C11.2549 0 12.1883 0.933621 12.1885 2.08496V3.27734L15.6729 1.24414C15.8067 1.16604 15.9593 1.12463 16.1143 1.12402L16.2305 1.13184C16.3068 1.14168 16.3819 1.1612 16.4531 1.19043L16.5576 1.24219L16.6543 1.30566C16.7152 1.35231 16.7696 1.40701 16.8164 1.46777L16.8818 1.56543L16.9316 1.66797C16.976 1.77488 17 1.89033 17 2.00684V8.5791C16.9999 8.73865 16.956 8.89537 16.874 9.03223C16.7921 9.16888 16.6746 9.28118 16.5342 9.35645C16.3936 9.43164 16.2344 9.46756 16.0752 9.45996C15.9558 9.45419 15.8392 9.42393 15.7324 9.37207L15.6289 9.31348L12.1885 7.01855V8.5C12.1884 9.65141 11.2549 10.585 10.1035 10.585H2.08496C0.93367 10.5848 8.12453e-05 9.65134 0 8.5V2.08496C0.00016726 0.933699 0.933723 0.000125579 2.08496 0H10.1035ZM2.08496 0.961914C1.46516 0.96204 0.962081 1.46515 0.961914 2.08496V8.5C0.961995 9.11988 1.46511 9.62292 2.08496 9.62305H10.1035C10.7235 9.62305 11.2265 9.11996 11.2266 8.5V2.08496C11.2264 1.46507 10.7234 0.961914 10.1035 0.961914H2.08496ZM12.1885 4.3916V5.8623L16.0371 8.42871V2.14453L12.1885 4.3916Z" fill="var(--fill-0, white)"/>
</g>
</svg>
