<svg preserveAspectRatio="xMidYMid meet" width="100%" height="100%" overflow="visible" style="display: block;" viewBox="0 0 17 13.7996" fill="none" xmlns="http://www.w3.org/2000/svg">
<g id="Group 6">
<path id="Union" d="M0.946289 0.14641C1.14153 -0.0488277 1.45805 -0.0487791 1.65332 0.14641L14.4531 12.9462C14.6484 13.1415 14.6484 13.458 14.4531 13.6532C14.2579 13.8484 13.9413 13.8485 13.7461 13.6532L11.9619 11.8691C11.8638 12.0576 11.7379 12.2327 11.585 12.3857C11.1912 12.7792 10.6564 12.9999 10.0996 12.9999H2.09961C1.54303 12.9998 1.00892 12.7791 0.615234 12.3857C0.221506 11.9919 0.000109659 11.4571 0 10.9003V4.49993C0.000102498 3.94321 0.221624 3.40927 0.615234 3.01555C1.00897 2.62182 1.5428 2.40042 2.09961 2.40032H2.49316L0.946289 0.853441C0.751137 0.65821 0.751162 0.341657 0.946289 0.14641ZM2.09961 3.40032C1.80801 3.40042 1.52846 3.51638 1.32227 3.72258C1.11619 3.92876 1.0001 4.20842 1 4.49993V10.9003C1.00011 11.1918 1.11619 11.4715 1.32227 11.6777C1.52844 11.8837 1.80811 11.9998 2.09961 11.9999H10.0996C10.3913 11.9999 10.6717 11.8838 10.8779 11.6777C11.0389 11.5166 11.1429 11.3101 11.1816 11.0888L3.49316 3.40032H2.09961ZM10.0996 2.40032C10.6566 2.40032 11.1911 2.62173 11.585 3.01555C11.9785 3.40926 12.2001 3.94324 12.2002 4.49993V5.62883L15.6465 3.61907L15.752 3.56633C15.8607 3.52075 15.978 3.49646 16.0967 3.49602L16.2148 3.50383C16.2926 3.51386 16.3689 3.53366 16.4414 3.5634L16.5479 3.61614L16.6465 3.68157C16.7089 3.72934 16.7645 3.78527 16.8125 3.84758L16.8789 3.94524L16.9307 4.05168C16.9758 4.1606 17 4.27775 17 4.39641V10.9531C16.9998 11.2289 16.7759 11.4529 16.5 11.4531C16.2241 11.4529 16.0002 11.2289 16 10.9531V4.56926L11.9521 6.93254C11.7976 7.0225 11.6063 7.0225 11.4512 6.93352C11.2961 6.84441 11.2003 6.67879 11.2002 6.49993V4.49993C11.2001 4.20846 11.084 3.92875 10.8779 3.72258C10.6716 3.51629 10.3913 3.40032 10.0996 3.40032H7.42773C7.15186 3.40015 6.92795 3.17617 6.92773 2.90032C6.92773 2.62428 7.15173 2.40048 7.42773 2.40032H10.0996Z" fill="var(--fill-0, white)"/>
</g>
</svg>
