<svg preserveAspectRatio="xMidYMid meet" width="100%" height="100%" overflow="visible" style="display: block;" viewBox="0 0 16.0008 11.499" fill="none" xmlns="http://www.w3.org/2000/svg">
<path id="Vector" d="M7.99995 0C9.6954 9.07247e-05 11.3536 0.503334 12.7627 1.44629C14.1716 2.38944 15.2695 3.73044 15.916 5.29785C15.9182 5.30316 15.9208 5.30907 15.9228 5.31445C16.0268 5.59493 16.0269 5.90413 15.9228 6.18457C15.9208 6.19006 15.9182 6.19576 15.916 6.20117C15.2694 7.76866 14.1718 9.10961 12.7627 10.0527C11.3536 10.9957 9.69541 11.4989 7.99995 11.499C6.30475 11.4989 4.64715 10.9954 3.23824 10.0527C1.82921 9.10969 0.731482 7.76853 0.0849159 6.20117C0.0827276 6.19587 0.0801056 6.18995 0.0780799 6.18457C-0.0260612 5.90402 -0.025992 5.59502 0.0780799 5.31445L0.0849159 5.29785C0.731453 3.73027 1.82905 2.38944 3.23824 1.44629C4.64724 0.503424 6.30458 7.50241e-05 7.99995 0ZM7.99995 1C6.50247 1.00008 5.0384 1.44447 3.7939 2.27734C2.55431 3.10699 1.5875 4.28479 1.01558 5.66211C0.995165 5.71731 0.994744 5.77864 1.0146 5.83398C1.5864 7.21229 2.55361 8.39157 3.7939 9.22168C5.03831 10.0544 6.50264 10.4989 7.99995 10.499C9.49749 10.4989 10.9625 10.0546 12.207 9.22168C13.4489 8.39042 14.4158 7.20884 14.9873 5.82812C15.0043 5.77684 15.0044 5.72118 14.9873 5.66992C14.4158 4.28963 13.4485 3.10846 12.207 2.27734C10.9625 1.4444 9.49749 1.00009 7.99995 1ZM7.99995 2.99902C9.51869 2.99908 10.75 4.23027 10.75 5.74902C10.75 7.26777 9.51869 8.49897 7.99995 8.49902C6.48117 8.49902 5.24995 7.26781 5.24995 5.74902C5.24995 4.23024 6.48117 2.99902 7.99995 2.99902ZM7.99995 3.99902C7.03346 3.99902 6.24995 4.78253 6.24995 5.74902C6.24995 6.71552 7.03346 7.49902 7.99995 7.49902C8.96641 7.49897 9.74995 6.71549 9.74995 5.74902C9.74995 4.78256 8.96641 3.99908 7.99995 3.99902Z" fill="var(--fill-0, #007AFF)"/>
</svg>
