<svg preserveAspectRatio="xMidYMid meet" width="100%" height="100%" overflow="visible" style="display: block;" viewBox="0 0 16 13" fill="none" xmlns="http://www.w3.org/2000/svg">
<path id="Union" d="M15.5 0C15.7761 -1.56917e-08 16 0.223858 16 0.5V12.5C16 12.7761 15.7761 13 15.5 13C15.2239 13 15 12.7761 15 12.5V7.04883C14.9271 7.15985 14.8308 7.25972 14.709 7.33887L11.5449 9.39355C10.9213 9.79864 10.1089 9.40466 10.0098 8.7002L10 8.55469V7H6V8.55469L5.99023 8.7002C5.89771 9.35782 5.18388 9.74482 4.58203 9.46387L4.45508 9.39355L1.29102 7.33887C1.16916 7.25972 1.07294 7.15985 1 7.04883V12.5C1 12.7761 0.776142 13 0.5 13C0.223858 13 9.28504e-09 12.7761 0 12.5V0.5C2.14254e-08 0.223858 0.223858 1.56917e-08 0.5 0C0.776142 -1.56917e-08 1 0.223858 1 0.5V5.9502C1.07289 5.83945 1.16941 5.74012 1.29102 5.66113L4.45508 3.60645C5.12035 3.17434 6 3.65203 6 4.44531V6H10V4.44531L10.0098 4.2998C10.1023 3.64218 10.8161 3.25518 11.418 3.53613L11.5449 3.60645L14.709 5.66113C14.8306 5.74012 14.9271 5.83945 15 5.9502V0.5C15 0.223858 15.2239 1.56917e-08 15.5 0ZM1.83594 6.5L5 8.55469V4.44531L1.83594 6.5ZM11 8.55469L14.1641 6.5L11 4.44531V8.55469Z" fill="var(--fill-0, white)"/>
</svg>
